# xmcd CD database file
#
# Track frame offsets:
#	150
#	14764
#	28089
#	37995
#	52542
#	68187
#	83091
#	97856
#	115697
#	133885
#	149678
#	163030
#	179580
#	199196
#
# Disc length: 2886 seconds
#
# Revision: 0
# Processed by: cddbd v1.4PL0 Copyright (c) Steve Scherf et al.
# Submitted via: CDex 1.40Release
#
DISCID=bf0b440e
DTITLE=The Bellamy Brothers - Best Of The Best [IMPORT]
DYEAR=1900
DGENRE=Country
TTITLE0=Dancin' Cowboys
TTITLE1=Do You Love As Good As You Look
TTITLE2=I'd Lie To You For Your Love
TTITLE3=If I Said You Had A Beautiful Body
TTITLE4=Kids Of The Baby Boom
TTITLE5=Let Your Love Flow
TTITLE6=Lovers Live Longer
TTITLE7=Old Hippie (New Version)
TTITLE8=Old Hippie (Original Version)
TTITLE9=Rip Off The Knob
TTITLE10=Slippin' Away
TTITLE11=Vertical Expression (Of Horizontal Desire)
TTITLE12=You Ain't Just Whistlin' Dixie
TTITLE13=Redneck Girl
EXTD=ID3G: 2
EXTT0=
EXTT1=
EXTT2=
EXTT3=
EXTT4=
EXTT5=
EXTT6=
EXTT7=
EXTT8=
EXTT9=
EXTT10=
EXTT11=
EXTT12=
EXTT13=
PLAYORDER=
